<svg id="Layer_1" height="512" viewBox="0 0 64 64" width="512" xmlns="http://www.w3.org/2000/svg" data-name="Layer 1"><circle cx="21" cy="43" fill="#d9e1e6" r="19"/><circle cx="48" cy="16" fill="#d9e1e6" r="14"/><circle cx="44" cy="11" fill="#ffdbac" r="2"/><path d="m48 22v-6a2 2 0 0 0 -2-2h-4a2 2 0 0 0 -2 2v6z" fill="#7cb2f8"/><circle cx="52" cy="11" fill="#ffcf94" r="2"/><path d="m56 22v-6a2 2 0 0 0 -2-2h-4a2 2 0 0 0 -2 2v6z" fill="#618ec4"/><circle cx="13" cy="38" fill="#ffcf94" r="2"/><path d="m17 49v-6a2 2 0 0 0 -2-2h-4a2 2 0 0 0 -2 2v6z" fill="#618ec4"/><circle cx="21" cy="38" fill="#ffdbac" r="2"/><path d="m25 49v-6a2 2 0 0 0 -2-2h-4a2 2 0 0 0 -2 2v6z" fill="#7cb2f8"/><circle cx="29" cy="38" fill="#ffcf94" r="2"/><path d="m33 49v-6a2 2 0 0 0 -2-2h-4a2 2 0 0 0 -2 2v6z" fill="#618ec4"/><path d="m21 63a20 20 0 1 0 -20-20 20.023 20.023 0 0 0 20 20zm0-38a18 18 0 1 1 -18 18 18.021 18.021 0 0 1 18-18z"/><path d="m48 1a15 15 0 1 0 15 15 15.017 15.017 0 0 0 -15-15zm0 28a13 13 0 1 1 13-13 13.015 13.015 0 0 1 -13 13z"/><path d="m54.2 13.021a3 3 0 1 0 -4.406 0 2.974 2.974 0 0 0 -1.8.759 2.974 2.974 0 0 0 -1.8-.759 3 3 0 1 0 -4.406 0 2.994 2.994 0 0 0 -2.788 2.979v6a1 1 0 0 0 1 1h16a1 1 0 0 0 1-1v-6a2.994 2.994 0 0 0 -2.8-2.979zm-10.2-3.021a1 1 0 1 1 -1 1 1 1 0 0 1 1-1zm3 11h-6v-5a1 1 0 0 1 1-1h4a1 1 0 0 1 1 1zm5-11a1 1 0 1 1 -1 1 1 1 0 0 1 1-1zm3 11h-6v-5a1 1 0 0 1 1-1h4a1 1 0 0 1 1 1z"/><path d="m9 50h24a1 1 0 0 0 1-1v-6a2.994 2.994 0 0 0 -2.8-2.979 3 3 0 1 0 -4.406 0 2.974 2.974 0 0 0 -1.8.759 2.974 2.974 0 0 0 -1.8-.759 3 3 0 1 0 -4.406 0 2.974 2.974 0 0 0 -1.8.759 2.974 2.974 0 0 0 -1.8-.759 3 3 0 1 0 -4.406 0 2.994 2.994 0 0 0 -2.782 2.979v6a1 1 0 0 0 1 1zm20-13a1 1 0 1 1 -1 1 1 1 0 0 1 1-1zm-3 6a1 1 0 0 1 1-1h4a1 1 0 0 1 1 1v5h-6zm-5-6a1 1 0 1 1 -1 1 1 1 0 0 1 1-1zm-3 6a1 1 0 0 1 1-1h4a1 1 0 0 1 1 1v5h-6zm-5-6a1 1 0 1 1 -1 1 1 1 0 0 1 1-1zm-3 6a1 1 0 0 1 1-1h4a1 1 0 0 1 1 1v5h-6z"/><path d="m12 16.154h2v2.154h-2z"/><path d="m12 20.462h2v2.154h-2z"/><path d="m14 12h-1a1 1 0 0 0 -1 1v1h2z"/><path d="m16.146 12h2.146v2h-2.146z"/><path d="m20.439 12h2.147v2h-2.147z"/><path d="m24.733 12h2.146v2h-2.146z"/><path d="m29.026 12h2.146v2h-2.146z"/><path d="m50 36.222h2v1.848h-2z"/><path d="m50 32.527h2v1.848h-2z"/><path d="m50 43.611h2v1.847h-2z"/><path d="m50 47.306h2v1.847h-2z"/><path d="m50 39.916h2v1.848h-2z"/><path d="m50 53h1a1 1 0 0 0 1-1v-1h-2z"/><path d="m45.492 51h2.254v2h-2.254z"/><path d="m40.984 51h2.254v2h-2.254z"/></svg>