<svg id="flat" height="512" viewBox="0 0 128 128" width="512" xmlns="http://www.w3.org/2000/svg"><path d="m93.8 76.625-36.384-35.025-23.542-.8-8.692-2.958-7.316-3.052-12.025 29.06s15.624 3.272 19.551 8.728 30.794 22.961 38.462 25.379 8.879-2.957 8.879-2.957c7.628 4.65 8.641-3.554 8.641-3.554 10.474 3.033 9.345-4.787 9.345-4.787 3.727-.354 4.915-2.459 5.172-4.476a6.641 6.641 0 0 0 -2.091-5.558z" fill="#f0c191"/><g fill="#ddb087"><path d="m93.8 76.626-.546-.525a6.167 6.167 0 0 1 .679 3.662c-.257 2.016-1.44 4.114-5.174 4.474 0 0 1.132 7.818-9.339 4.783 0 0-1.019 8.209-8.641 3.559 0 0-1.214 5.37-8.877 2.952-2.664-.839-7.644-3.5-13.173-6.841v1.229c6.289 3.893 12.152 7.1 15.128 8.04 7.662 2.417 8.876-2.959 8.876-2.959 7.632 4.649 8.64-3.549 8.64-3.549 10.471 3.024 9.35-4.793 9.35-4.793 3.724-.35 4.907-2.459 5.164-4.475a6.609 6.609 0 0 0 -2.087-5.557z"/><path d="m30.854 77.629s2.524-4.236 5.771-4c2.871.208 5.5 2.866 3.992 6.442 0 0 4.57-4.846 8.37-1.516 0 0 2.926 2.5 1.522 5.42 0 0 2.7-3.5 5.538-1.678 3.371 2.163 1.1 6.035 1.1 6.035s4.757-1.692 6.156 2.7c.892 2.8-1.386 5.2-1.386 5.2s-5.462 4.284-8.358-2.315c0 0-7.7 1.368-7.5-4.6 0 0-7.041 2.738-7.709-4.778a7.857 7.857 0 0 1 -5.893-1.985 5.183 5.183 0 0 1 -1.603-4.925z"/><path d="m97.9 38.781-7.479 3.637a3.428 3.428 0 0 1 -2.985.006c-3.886-1.867-14.312-6.682-17.96-6.432-4.519.31-12.368 6.771-15.9 7.014-3.285.225-1.221 8.935-5.148 15.211a2.755 2.755 0 0 0 .04 3.107c1.7 2.313 5.368 5.674 10.4 1.259 7.076-6.211 6.78-10.534 6.78-10.534l29.058 25.684 7.754-4.123 13.588-6.262z"/></g><path d="m113.98 64.097-12.199 5.616-7.756 4.125-2.358 1.214 3.037 2.684 7.755-4.124 13.588-6.265z" fill="#c49b7a"/><rect fill="#2f3a5a" height="39.128" rx="2.35" transform="matrix(.883 -.469 .469 .883 -11.336 57.27)" width="23.521" x="97.502" y="31.82"/><rect fill="#2f3a5a" height="39.128" rx="2.35" transform="matrix(.883 -.469 .469 .883 -11.336 57.27)" width="23.521" x="97.502" y="31.82"/><path d="m126.755 64.241-16.622 8.836a2.346 2.346 0 0 1 -3.178-.977l-16.15-30.4a2.343 2.343 0 0 1 .967-3.178l.154-.083 15.029 28.3a2.346 2.346 0 0 0 3.178.977l16.467-8.752 1.121 2.1a2.351 2.351 0 0 1 -.966 3.177z" fill="#2a354f"/><rect fill="#477ea8" height="23.521" rx="2.35" transform="matrix(.344 -.939 .939 .344 -37.022 49.762)" width="39.128" x="-2.452" y="39.623"/><path d="m34.077 39.266-11.849 32.334a2.359 2.359 0 0 1 -3.014 1.4l-17.672-6.486a2.335 2.335 0 0 1 -1.43-2.88 2.062 2.062 0 0 0 .535.288l17.672 6.47a2.344 2.344 0 0 0 3.014-1.4l11.849-32.318a.309.309 0 0 0 .031-.134 2.317 2.317 0 0 1 .864 2.726z" fill="#3f7393"/><path d="m75.984 72.768s8.19 8.7 13.938 12.376z" fill="#ddb087"/><path d="m67.386 78.2s8.19 8.7 13.938 12.376z" fill="#ddb087"/><path d="m59 81.884s8.19 8.7 13.938 12.376z" fill="#ddb087"/><path d="m57.148 88.331a17.528 17.528 0 0 0 -3.588 5.593 44.791 44.791 0 0 0 3.588-5.593z" fill="#c49b7a"/><path d="m50.264 84.123a18.809 18.809 0 0 0 -4.1 5.089s3.195-3.105 4.1-5.089z" fill="#c49b7a"/><path d="m40.617 80.07a18.3 18.3 0 0 0 -2.241 4.389 14.2 14.2 0 0 0 2.241-4.389z" fill="#c49b7a"/></svg>