<svg id="Capa_1" enable-background="new 0 0 510.85 510.85" height="512" viewBox="0 0 510.85 510.85" width="512" xmlns="http://www.w3.org/2000/svg"><g><g><path d="m194.207 28.27c-103.433 0-187.282 56.311-187.282 125.773 0 51.079 45.342 95.045 110.47 114.74v48.87c0 4.872 6.258 6.867 9.077 2.894l30.661-43.2c11.985 1.616 24.381 2.469 37.074 2.469 103.433 0 177.281-56.311 177.281-125.773s-73.849-125.773-177.281-125.773z" fill="#fd8087"/><path d="m194.207 28.27c-5.05 0-10.051.139-15 .402 89.763 4.778 161.701 52.058 171.204 111.875 1.009 6.354-4.043 11.984-10.468 11.645-4.001-.211-8.044-.322-12.126-.322-86.769 0-157.109 47.238-157.109 105.51 0 6.692.938 13.236 2.712 19.583.142.708.301 1.408.458 2.11 6.678.486 13.458.744 20.329.744 103.433 0 187.281-56.311 187.281-125.773 0-69.463-83.849-125.774-187.281-125.774z" fill="#fe646f"/><path d="m346.816 173.87c86.769 0 147.109 47.238 147.109 105.51 0 42.85-28.037 79.733-82.672 96.254v38.47c0 4.872-6.258 6.867-9.077 2.894l-24.258-34.179c-10.054 1.356-20.453 2.071-31.101 2.071-86.769 0-157.109-47.238-157.109-105.51-.001-58.272 70.339-105.51 157.108-105.51z" fill="#8ac9fe"/><path d="m254.207 301.829c-20.789 0-40.13 4.156-56.293 11.291 20.956 41.725 79.704 71.77 148.902 71.77 2.643 0 5.271-.045 7.883-.132 1.392-4.525 2.125-9.212 2.125-14.014 0-38.061-45.943-68.915-102.617-68.915z" fill="#60b7ff"/><g><path d="m346.816 173.87c-5.06 0-10.062.167-15 .481 79.731 5.073 142.109 50.156 142.109 105.029 0 39.978-33.109 74.761-81.915 92.661-6.478 2.376-10.757 8.578-10.757 15.478l20.923 29.479c2.82 3.973 9.077 1.978 9.077-2.894v-38.47c54.635-16.521 92.672-53.404 92.672-96.254 0-58.272-70.34-105.51-157.109-105.51z" fill="#60b7ff"/></g><path d="m244.207 321.829c-56.674 0-102.618 30.854-102.618 68.915 0 27.988 24.845 52.078 60.53 62.87v25.961c0 2.923 3.755 4.12 5.447 1.736l16.327-23.005c6.567.886 13.359 1.353 20.314 1.353 56.674 0 92.618-30.854 92.618-68.915-.001-38.061-35.944-68.915-92.618-68.915z" fill="#fed402"/><g><path d="m244.207 321.829c-4.232 0-8.402.176-12.5.51 50.778 4.142 90.118 33.187 90.118 68.405 0 35.192-39.28 64.22-90.001 68.396 4.062.329 8.188.519 12.383.519 56.674 0 102.618-30.854 102.618-68.915s-45.944-68.915-102.618-68.915z" fill="#fac600"/></g></g><g id="_x31_9_open_discussion_2_"><path d="m140.061 156.37c0-4.142-3.358-7.5-7.5-7.5s-7.5 3.358-7.5 7.5c0 4.142 3.358 7.5 7.5 7.5s7.5-3.358 7.5-7.5z"/><path d="m201.132 156.37c0-4.142-3.358-7.5-7.5-7.5s-7.5 3.358-7.5 7.5c0 4.142 3.358 7.5 7.5 7.5s7.5-3.358 7.5-7.5z"/><path d="m262.203 156.37c0-4.142-3.358-7.5-7.5-7.5s-7.5 3.358-7.5 7.5c0 4.142 3.358 7.5 7.5 7.5s7.5-3.358 7.5-7.5z"/><path d="m287.678 286.829c0 4.142 3.358 7.5 7.5 7.5s7.5-3.358 7.5-7.5c0-4.142-3.358-7.5-7.5-7.5s-7.5 3.358-7.5 7.5z"/><path d="m338.75 286.829c0 4.142 3.358 7.5 7.5 7.5s7.5-3.358 7.5-7.5c0-4.142-3.358-7.5-7.5-7.5s-7.5 3.358-7.5 7.5z"/><path d="m389.821 286.829c0 4.142 3.358 7.5 7.5 7.5s7.5-3.358 7.5-7.5c0-4.142-3.358-7.5-7.5-7.5s-7.5 3.358-7.5 7.5z"/><path d="m195.061 397.907c0 4.142 3.358 7.5 7.5 7.5s7.5-3.358 7.5-7.5c0-4.142-3.358-7.5-7.5-7.5-4.143 0-7.5 3.358-7.5 7.5z"/><path d="m236.132 397.907c0 4.142 3.358 7.5 7.5 7.5s7.5-3.358 7.5-7.5c0-4.142-3.358-7.5-7.5-7.5s-7.5 3.358-7.5 7.5z"/><path d="m292.203 397.907c0-4.142-3.358-7.5-7.5-7.5s-7.5 3.358-7.5 7.5c0 4.142 3.358 7.5 7.5 7.5s7.5-3.358 7.5-7.5z"/><path d="m453.436 193.471c-3.571-2.098-8.167-.904-10.266 2.668-2.098 3.571-.903 8.167 2.668 10.266 31.783 18.671 50.012 45.27 50.012 72.975 0 38.066-34.284 73.031-87.343 89.075-3.164.957-5.329 3.873-5.329 7.179v30.628l-19.72-27.784c-1.613-2.273-4.355-3.466-7.118-3.092-7.961 1.073-16.09 1.719-24.248 1.928-1.385-5.54-3.633-10.91-6.689-16.036-1-1.687-2.085-3.321-3.231-4.911-14.215-19.828-40.371-34.483-71.939-39.821-20.228-3.432-41.284-2.953-61.294 1.617-8.094-12.16-12.223-25.056-12.3-38.405 0-.012.001-.023.001-.035l-.009-.344c0-54.043 67.114-98.01 149.608-98.01 4.712 0 9.427.153 14.13.444 19.977 1.252 39.475 5.141 57.076 11.434 3.899 1.393 8.192-.636 9.588-4.537 1.395-3.9-.637-8.192-4.537-9.587-11.22-4.012-23.145-7.104-35.451-9.244.902-5.249 1.366-10.549 1.366-15.837 0-36.173-20.659-69.968-58.173-95.161-36.593-24.576-85.108-38.111-136.606-38.111-99.22 0-182.42 50.744-193.53 118.034-.675 4.087 2.091 7.947 6.178 8.622 4.091.675 7.946-2.09 8.621-6.178 4.684-28.362 25.032-54.734 57.3-74.257 33.273-20.133 76.399-31.22 121.432-31.22 99.132 0 179.782 53.057 179.782 118.273 0 4.577-.407 9.169-1.213 13.717-8.61-.93-17.299-1.39-25.96-1.39-43.439 0-84.377 11.427-115.273 32.177-25.166 16.901-46.16 42.387-49.003 73.519-8.213-.35-16.393-1.071-24.403-2.151-2.765-.374-5.505.818-7.119 3.092l-26.122 36.805v-41.028c0-3.306-2.165-6.222-5.329-7.179-27.221-8.231-51.168-20.974-69.253-36.852-17.97-15.776-29.732-34.332-34.017-53.662-.896-4.044-4.898-6.598-8.945-5.7-4.044.896-6.596 4.901-5.699 8.945 4.978 22.464 18.383 43.795 38.765 61.689 18.479 16.224 42.41 29.388 69.479 38.259v43.37c0 5.464 3.498 10.25 8.704 11.909 1.262.402 2.549.597 3.819.597 3.968 0 7.775-1.896 10.17-5.271l28.061-39.537c7.239.855 14.587 1.43 21.954 1.727 1.204 12.175 5.243 24.17 11.919 35.384-9.838 3.432-18.966 7.891-27.058 13.325-21.521 14.454-33.374 33.971-33.374 54.957 0 29.081 23.568 55.463 60.529 68.318v20.513c0 4.589 2.938 8.609 7.309 10.004 1.062.338 2.143.501 3.21.501 3.333 0 6.531-1.593 8.544-4.428l13.746-19.369c13.483 1.418 27.45 1.101 40.678-.912 4.095-.623 6.91-4.448 6.287-8.542-.624-4.096-4.463-6.913-8.543-6.287-13.314 2.026-27.512 2.145-40.954.332-2.768-.373-5.505.818-7.119 3.092l-8.158 11.495v-11.847c0-3.306-2.165-6.222-5.329-7.179-33.533-10.14-55.2-32-55.2-55.691 0-15.83 9.495-30.925 26.737-42.504 9.34-6.273 20.309-11.083 32.282-14.288 14.912-3.608 29.913-5.287 45.26-4.334 20.736 1.311 39.71 7.027 54.531 15.698 16.276 9.577 31.424 25.373 31.424 45.428 0 20.813-16.353 40.095-43.742 51.581-3.82 1.602-5.618 5.997-4.016 9.817 1.601 3.82 5.997 5.617 9.816 4.016 32.534-13.643 52.187-37.451 52.907-63.909 6.742-.211 13.473-.67 20.107-1.433l21.663 30.522c2.396 3.375 6.202 5.271 10.17 5.271 1.271 0 2.558-.194 3.82-.597 5.205-1.66 8.703-6.446 8.703-11.91v-32.981c56.491-18.765 92.672-58.264 92.672-101.743-.002-33.161-20.928-64.474-57.416-85.909z"/></g></g></svg>