<svg id="Capa_1" enable-background="new 0 0 511.996 511.996" height="512" viewBox="0 0 511.996 511.996" width="512" xmlns="http://www.w3.org/2000/svg"><g><g><circle cx="166.315" cy="166.315" fill="#dd5790" r="158.811"/><path d="m192.06 323.049c-8.387 1.366-16.984 2.079-25.753 2.079-87.703 0-158.804-71.101-158.804-158.814 0-87.703 71.101-158.804 158.804-158.804 8.768 0 17.366.713 25.753 2.079-75.469 12.305-133.061 77.791-133.061 156.726 0 78.944 57.592 144.431 133.061 156.734z" fill="#da387d"/><circle cx="345.685" cy="345.684" fill="#b3e59f" r="158.811"/><path d="m371.43 502.419c-8.387 1.366-16.984 2.079-25.753 2.079-87.703 0-158.804-71.101-158.804-158.814 0-87.703 71.101-158.804 158.804-158.804 8.768 0 17.366.713 25.753 2.079-75.47 12.304-133.061 77.79-133.061 156.725 0 78.945 57.591 144.431 133.061 156.735z" fill="#95d6a4"/><g><path d="m421.32 300.886c3.428-6.909.605-15.282-6.304-18.71l-21.618-10.708c-6.909-3.428-15.282-.605-18.71 6.304l-42.78 86.313-20.833-34.841c-3.959-6.622-12.523-8.777-19.145-4.818l-20.705 12.374c-6.612 3.959-8.777 12.523-4.818 19.145l41.05 68.664c2.621 4.383 7.429 6.994 12.523 6.792l29.1-1.146c5.105-.202 9.689-3.173 11.95-7.747z" fill="#f9f6f9"/><g fill="#dddaec"><path d="m340.61 378.639 49.993-100.867c1.115-2.247 2.758-4.053 4.699-5.361l-1.904-.943c-6.909-3.428-15.282-.605-18.71 6.304l-42.78 86.313z"/><path d="m323.372 424.609-41.05-68.664c-3.958-6.622-1.794-15.187 4.818-19.145l19.874-11.878c-4.36-3.005-10.239-3.393-15.085-.497l-20.705 12.374c-6.612 3.959-8.777 12.523-4.818 19.145l41.05 68.664c2.621 4.383 7.429 6.994 12.523 6.792l11.793-.465c-3.463-.921-6.504-3.157-8.4-6.326z"/></g></g><path d="m228.539 190.693-24.379-24.379 24.378-24.378c6.016-6.016 6.016-15.769 0-21.785l-16.06-16.06c-6.016-6.016-15.769-6.016-21.785 0l-24.378 24.378-24.379-24.379c-6.016-6.016-15.769-6.016-21.785 0l-16.06 16.06c-6.016 6.016-6.016 15.769 0 21.785l24.379 24.379-24.378 24.378c-6.016 6.016-6.016 15.769 0 21.785l16.06 16.06c6.016 6.016 15.769 6.016 21.785 0l24.378-24.378 24.379 24.379c6.016 6.016 15.769 6.016 21.785 0l16.06-16.06c6.015-6.016 6.015-15.769 0-21.785z" fill="#f9f6f9"/><g fill="#dddaec"><path d="m137.992 228.537-16.06-16.059c-6.016-6.016-6.016-15.769 0-21.785l24.378-24.378-24.379-24.379c-6.016-6.016-6.016-15.769 0-21.785l16.06-16.06c.618-.618 1.284-1.156 1.972-1.647-6.016-4.289-14.415-3.75-19.813 1.647l-16.06 16.06c-6.016 6.016-6.016 15.769 0 21.785l24.379 24.379-24.378 24.378c-6.016 6.016-6.016 15.769 0 21.785l16.06 16.059c5.398 5.398 13.796 5.936 19.812 1.647-.688-.49-1.353-1.029-1.971-1.647z"/><path d="m175.236 137.39 33.298-33.298c.618-.618 1.284-1.156 1.972-1.647-6.016-4.289-14.415-3.75-19.812 1.647l-24.378 24.379z"/><path d="m208.534 228.538-33.299-33.299-8.92 8.92 24.379 24.379c5.398 5.398 13.796 5.936 19.812 1.647-.688-.491-1.354-1.029-1.972-1.647z"/></g></g><g><path d="m345.685 179.373c-4.592 0-9.138.195-13.637.562.365-4.538.572-9.089.572-13.615 0-91.709-74.602-166.32-166.3-166.32-91.709 0-166.32 74.611-166.32 166.32 0 29.699 7.927 58.85 22.925 84.301 14.557 24.703 35.366 45.351 60.178 59.71 1.183.685 2.475 1.01 3.75 1.01 2.589 0 5.108-1.343 6.498-3.745 2.075-3.585.851-8.173-2.734-10.248-22.582-13.068-41.521-31.86-54.769-54.343-13.639-23.144-20.848-49.662-20.848-76.685 0-83.438 67.882-151.32 151.32-151.32 83.427 0 151.3 67.882 151.3 151.32 0 5.174-.268 10.388-.791 15.564-68.622 12.054-122.888 66.319-134.943 134.941-5.163.525-10.378.795-15.566.795-17.13 0-33.934-2.839-49.943-8.44-3.912-1.368-8.188.694-9.556 4.603-1.368 3.91.693 8.188 4.603 9.556 17.606 6.158 36.076 9.281 54.896 9.281 4.535 0 9.086-.208 13.616-.574-.367 4.499-.562 9.046-.562 13.638 0 91.704 74.607 166.311 166.311 166.311s166.311-74.607 166.311-166.311c0-91.705-74.607-166.311-166.311-166.311zm0 317.622c-83.433 0-151.311-67.878-151.311-151.311 0-83.434 67.878-151.312 151.311-151.312s151.311 67.878 151.311 151.312c0 83.433-67.878 151.311-151.311 151.311z"/><path d="m418.349 275.46-21.614-10.707c-5.136-2.55-10.958-2.948-16.388-1.118-5.43 1.829-9.825 5.665-12.376 10.805l-36.676 73.995-13.778-23.044c-6.069-10.146-19.272-13.473-29.435-7.408l-20.716 12.383c-10.146 6.078-13.462 19.277-7.394 29.422l41.051 68.672c3.889 6.501 10.883 10.451 18.407 10.451.281 0 .563-.005.846-.017l29.098-1.15c7.856-.308 14.899-4.872 18.375-11.903l21.13-42.63c1.84-3.711.322-8.211-3.389-10.051-3.71-1.84-8.21-.322-10.05 3.389l-21.134 42.636c-1.043 2.109-3.158 3.478-5.522 3.57l-29.099 1.15c-2.352.097-4.572-1.113-5.788-3.144l-41.051-68.672c-1.827-3.053-.827-7.026 2.222-8.853l20.705-12.377c3.064-1.828 7.042-.827 8.87 2.229l20.83 34.84c1.408 2.355 3.989 3.748 6.732 3.646 2.742-.108 5.206-1.705 6.425-4.164l42.778-86.306c.769-1.548 2.092-2.704 3.726-3.254 1.633-.549 3.384-.43 4.937.341l21.619 10.709c1.543.765 2.696 2.086 3.247 3.722s.433 3.388-.336 4.937l-25.94 52.32c-1.84 3.711-.323 8.211 3.388 10.051 3.711 1.842 8.21.323 10.051-3.388l25.938-52.317c2.55-5.136 2.945-10.958 1.113-16.394-1.831-5.433-5.667-9.826-10.802-12.371z"/><path d="m98.789 217.781 16.06 16.06c8.93 8.931 23.461 8.932 32.391 0l19.075-19.075 19.076 19.075c4.466 4.466 10.33 6.698 16.196 6.698 5.864 0 11.731-2.233 16.195-6.698l16.06-16.06c8.93-8.93 8.93-23.461 0-32.391l-19.076-19.076 19.075-19.075c8.931-8.93 8.931-23.461 0-32.391l-16.06-16.06c-4.326-4.326-10.078-6.709-16.196-6.708-6.118 0-11.869 2.382-16.195 6.708l-19.075 19.075-19.075-19.075c-8.93-8.931-23.461-8.931-32.391 0l-16.06 16.06c-8.93 8.93-8.93 23.461 0 32.391l19.075 19.076-19.075 19.075c-8.93 8.93-8.93 23.461 0 32.391zm10.607-21.784 24.378-24.378c2.929-2.929 2.929-7.678 0-10.606l-24.378-24.379c-3.082-3.082-3.082-8.096 0-11.178l16.06-16.06c1.541-1.541 3.565-2.311 5.589-2.311s4.048.77 5.589 2.311l24.379 24.379c2.929 2.929 7.678 2.929 10.606 0l24.378-24.378c1.493-1.493 3.478-2.315 5.589-2.315s4.096.822 5.589 2.315l16.06 16.06c3.082 3.082 3.082 8.096 0 11.178l-24.378 24.378c-2.929 2.929-2.929 7.678 0 10.606l24.379 24.379c3.082 3.082 3.082 8.096 0 11.178l-16.06 16.06c-3.083 3.083-8.097 3.082-11.178 0l-24.379-24.378c-2.929-2.929-7.678-2.929-10.606 0l-24.378 24.378c-3.083 3.083-8.097 3.082-11.178 0l-16.06-16.06c-3.083-3.083-3.083-8.097-.001-11.179z"/></g></g></svg>