<?xml version="1.0" encoding="iso-8859-1"?>
<!-- Generator: Adobe Illustrator 19.0.0, SVG Export Plug-In . SVG Version: 6.00 Build 0)  -->
<svg version="1.1" id="Capa_1" xmlns="http://www.w3.org/2000/svg" xmlns:xlink="http://www.w3.org/1999/xlink" x="0px" y="0px"
	 viewBox="0 0 480.331 480.331" style="enable-background:new 0 0 480.331 480.331;" xml:space="preserve">
<g>
	<path style="fill:#5A6570;" d="M8.194,280.631c0.021,32.237,24.016,59.426,56,63.456V217.183
		C32.213,221.212,8.219,248.397,8.194,280.631z"/>
	<path style="fill:#5A6570;" d="M144.194,248.087h-16.92c-10.071-17.03-27.451-28.444-47.08-30.92v126.92
		c19.863-2.489,37.416-14.129,47.44-31.456v-0.544h16.56V248.087z"/>
</g>
<path style="fill:#F4D8C3;" d="M393.162,135.119c-9.374-9.371-24.57-9.369-33.941,0.005c-4.498,4.499-7.025,10.601-7.027,16.963
	v53.256c0.038-17.585-14.186-31.871-31.771-31.909c-2.947-0.006-5.881,0.396-8.717,1.197c-5.336,1.415-10.209,4.201-14.136,8.08
	l-4.576,4.576c-0.92-1.088-1.864-2.16-2.88-3.2c-18.674-18.747-49.01-18.806-67.758-0.132c-6.141,6.117-10.507,13.785-12.634,22.188
	h-1.528v-78.056c0-13.255-10.745-24-24-24s-24,10.745-24,24v183.264c0.001,28.941,10.353,56.928,29.184,78.904l7.936,9.256
	c7.222,8.421,15.567,15.81,24.8,21.96l34.08,22.736v35.88h112v-41.944c20.491-20.489,32.002-48.279,32-77.256v-208.8
	C400.193,145.722,397.663,139.619,393.162,135.119L393.162,135.119z"/>
<g>
	<path style="fill:#F8C09C;" d="M393.162,135.119c-6.543-6.532-16.262-8.712-24.968-5.6c9.614,3.322,16.047,12.396,16,22.568v208.8
		c0,28.974-11.511,56.761-32,77.248v41.952h16v-41.944c20.491-20.489,32.002-48.279,32-77.256v-208.8
		C400.193,145.722,397.663,139.619,393.162,135.119L393.162,135.119z"/>
	<path style="fill:#F8C09C;" d="M185.162,111.119c4.501,4.5,7.031,10.603,7.032,16.968v120h16v-120
		c0.015-13.215-10.686-23.94-23.901-23.955c-2.76-0.003-5.5,0.471-8.099,1.403C179.564,106.701,182.629,108.609,185.162,111.119z"/>
</g>
<path style="fill:#D1E3EE;" d="M352.194,248.087v14.056c0,13.255-10.745,24-24,24s-24-10.745-24-24c0,13.255-10.745,24-24,24
	s-24-10.745-24-24v-14.056h-128v64h312v-64H352.194z"/>
<path style="fill:#5A6570;" d="M472.194,312.087h-32c-4.418,0-8-3.582-8-8s3.582-8,8-8h32c4.418,0,8,3.582,8,8
	S476.612,312.087,472.194,312.087z"/>
<g>
	<path style="fill:#2276BB;" d="M416.194,48.087h-16v-16c0-4.418-3.582-8-8-8s-8,3.582-8,8v16h-16c-4.418,0-8,3.582-8,8s3.582,8,8,8
		h16v16c0,4.418,3.582,8,8,8s8-3.582,8-8v-16h16c4.418,0,8-3.582,8-8S420.612,48.087,416.194,48.087z"/>
	<path style="fill:#2276BB;" d="M232.194,24.087h-16v-16c0-4.418-3.582-8-8-8s-8,3.582-8,8v16h-16c-4.418,0-8,3.582-8,8s3.582,8,8,8
		h16v16c0,4.418,3.582,8,8,8s8-3.582,8-8v-16h16c4.418,0,8-3.582,8-8S236.612,24.087,232.194,24.087z"/>
</g>
<g>
	<path style="fill:#88D0EF;" d="M56.194,40.087h32V10.183c-10.484-2.795-21.516-2.795-32,0V40.087z"/>
	<path style="fill:#88D0EF;" d="M136.194,72.087c-0.02-5.4-0.724-10.777-2.096-16h-29.904v32h29.904
		C135.47,82.864,136.174,77.487,136.194,72.087z"/>
	<path style="fill:#88D0EF;" d="M56.194,56.087h32v32h-32V56.087z"/>
	<path style="fill:#88D0EF;" d="M104.194,40.087h23.368c-5.62-9.692-13.676-17.748-23.368-23.368V40.087z"/>
	<path style="fill:#88D0EF;" d="M40.194,56.087H10.29c-2.795,10.484-2.795,21.516,0,32h29.904V56.087z"/>
	<path style="fill:#88D0EF;" d="M104.194,104.087v23.368c9.692-5.62,17.748-13.676,23.368-23.368H104.194z"/>
	<path style="fill:#88D0EF;" d="M88.194,104.087h-32v29.904c10.484,2.795,21.516,2.795,32,0V104.087z"/>
	<path style="fill:#88D0EF;" d="M40.194,40.087V16.719c-9.692,5.62-17.748,13.676-23.368,23.368H40.194z"/>
	<path style="fill:#88D0EF;" d="M40.194,104.087H16.826c5.62,9.692,13.676,17.748,23.368,23.368V104.087z"/>
</g>
<g>
	<path style="fill:#2BB3CE;" d="M192.194,480.087c-2.563,0.003-4.973-1.223-6.48-3.296l-64-88
		c-2.598-3.574-1.806-8.578,1.768-11.176s8.578-1.806,11.176,1.768l64,88c2.598,3.574,1.807,8.577-1.767,11.175
		C195.526,479.55,193.882,480.086,192.194,480.087L192.194,480.087z"/>
	<path style="fill:#2BB3CE;" d="M144.194,480.087c-2.122,0-4.156-0.844-5.656-2.344l-24-24c-3.069-3.178-2.982-8.242,0.196-11.312
		c3.1-2.994,8.015-2.994,11.116,0l24,24c3.124,3.125,3.123,8.19-0.002,11.314C148.349,479.244,146.315,480.087,144.194,480.087
		L144.194,480.087z"/>
	<path style="fill:#2BB3CE;" d="M96.194,432.087c-2.122,0-4.156-0.844-5.656-2.344l-8-8c-3.07-3.178-2.982-8.242,0.196-11.312
		c3.1-2.995,8.016-2.995,11.116,0l8,8c3.124,3.125,3.123,8.19-0.002,11.314C100.349,431.244,98.315,432.087,96.194,432.087z"/>
	<path style="fill:#2BB3CE;" d="M400.194,480.087c-4.418-0.001-7.999-3.583-7.998-8.002c0-2.121,0.843-4.154,2.342-5.654l48-48
		c3.178-3.07,8.242-2.982,11.312,0.196c2.995,3.1,2.995,8.016,0,11.116l-48,48C404.35,479.243,402.316,480.087,400.194,480.087z"/>
	<path style="fill:#2BB3CE;" d="M464.194,416.087c-4.418-0.001-7.999-3.583-7.998-8.002c0-2.121,0.843-4.154,2.342-5.654l8-8
		c3.178-3.07,8.242-2.982,11.312,0.196c2.995,3.1,2.995,8.016,0,11.116l-8,8C468.35,415.243,466.316,416.087,464.194,416.087z"/>
	<path style="fill:#2BB3CE;" d="M448.194,480.087c-4.418,0.005-8.004-3.572-8.01-7.99c-0.003-2.678,1.334-5.18,3.562-6.666l24-16
		c3.676-2.452,8.644-1.46,11.096,2.216s1.46,8.644-2.216,11.096l-24,16C451.314,479.618,449.772,480.086,448.194,480.087z"/>
	<path style="fill:#2BB3CE;" d="M88.194,480.087c-0.859,0.001-1.713-0.137-2.528-0.408l-24-8c-4.197-1.396-6.468-5.931-5.072-10.128
		c1.396-4.197,5.931-6.468,10.128-5.072l0,0l24,8c4.202,1.366,6.501,5.879,5.135,10.081C94.78,477.875,91.68,480.111,88.194,480.087
		z"/>
</g>
<g>
	<path style="fill:#EC7422;" d="M272.194,104.087c-8.837,0-16-7.163-16-16s7.163-16,16-16s16,7.163,16,16
		S281.031,104.087,272.194,104.087z"/>
	<path style="fill:#EC7422;" d="M40.194,192.087c-8.837,0-16-7.163-16-16s7.163-16,16-16s16,7.163,16,16
		S49.031,192.087,40.194,192.087z"/>
</g>
<g>
	<path style="fill:#F8C09C;" d="M290.138,184.087c-12.446-12.381-30.678-16.943-47.488-11.88
		c25.528,1.141,45.617,22.207,45.544,47.76v42.176c0.093,9.122-5.117,17.468-13.352,21.392c12.871,2.996,25.734-5.01,28.729-17.881
		c0.416-1.786,0.625-3.613,0.623-5.447v-42.176C304.196,205.3,299.14,193.09,290.138,184.087z"/>
	<path style="fill:#F8C09C;" d="M342.818,182.711c-8.153-8.11-20.043-11.198-31.112-8.08c-1.064,0.296-2.112,0.672-3.152,1.064
		c6.914,0.877,13.339,4.029,18.264,8.96c6.004,6.002,9.376,14.143,9.376,22.632v54.856c0.093,9.122-5.117,17.468-13.352,21.392
		c12.871,2.996,25.734-5.01,28.729-17.881c0.416-1.786,0.625-3.613,0.623-5.447v-54.864
		C352.194,196.854,348.822,188.713,342.818,182.711z"/>
</g>
<path style="fill:#A9BFD1;" d="M128.194,296.087h312v16h-312V296.087z"/>
<path style="fill:#F8C09C;" d="M176.194,312.087v8c0,13.255,10.745,24,24,24v-24l8-8H176.194z"/>
<path style="fill:#F4D8C3;" d="M208.194,392.087c-5.297-15.896-7.998-32.541-8-49.296v-22.704c0-13.255,10.745-24,24-24
	s24,10.745,24,24v40l38.544,22.024c11.383,6.505,20.586,16.233,26.448,27.96c4.608,9.218,7.008,19.382,7.008,29.688v16.328h-48
	L208.194,392.087z"/>
<path d="M408.194,320.087h32c4.418,0,8-3.582,8-8h24c4.418,0,8-3.582,8-8s-3.582-8-8-8h-24v-48c0-4.418-3.582-8-8-8h-32v-88
	c0-17.673-14.327-32-32-32s-32,14.327-32,32v21.448c-15.308-11.798-36.913-10.751-51.008,2.472
	c-21.733-19.74-55.128-18.969-75.928,1.752l-0.672,0.672c-0.136,0.144-0.256,0.296-0.392,0.44v-50.784c0-17.673-14.327-32-32-32
	s-32,14.327-32,32v112h-20.32c-22.091-33.063-66.803-41.958-99.867-19.867s-41.958,66.803-19.867,99.867
	s66.803,41.958,99.867,19.867c7.862-5.253,14.613-12.004,19.867-19.867h20.56c-0.112,0.393-0.192,0.794-0.24,1.2
	c0.009,30.851,11.04,60.684,31.104,84.12l7.944,9.248c7.685,8.978,16.568,16.857,26.4,23.416l30.552,20.352v13.664
	c0,4.418,3.582,8,8,8c4.418,0,8-3.582,8-8v-17.944c-0.001-2.676-1.34-5.174-3.568-6.656l-34.032-22.728
	c-8.641-5.736-16.448-12.639-23.2-20.512l-7.936-9.256c-17.586-20.531-27.256-46.671-27.264-73.704
	c-0.05-0.406-0.133-0.807-0.248-1.2h24.248v12.8c-0.007,17.615,2.832,35.115,8.408,51.824c1.396,4.197,5.931,6.468,10.128,5.072
	c4.197-1.396,6.468-5.931,5.072-10.128l0,0c-5.035-15.079-7.604-30.871-7.608-46.768v-12.8c0.014-4.241,1.698-8.305,4.688-11.312
	c6.329-6.047,16.295-6.047,22.624,0c2.99,3.007,4.674,7.072,4.688,11.312v30.056c-0.006,2.864,1.52,5.512,4,6.944l38.544,22.032
	c18.207,10.39,29.449,29.741,29.456,50.704v16.32c0,4.418,3.582,8,8,8s8-3.582,8-8v-16.32
	c-0.002-26.697-14.308-51.347-37.488-64.592l-34.512-19.728v-25.416h136v50.744c0.074,26.87-10.605,52.652-29.656,71.6
	c-1.5,1.5-2.344,3.534-2.344,5.656v24c0,4.418,3.582,8,8,8s8-3.582,8-8v-20.752c20.626-21.718,32.088-50.552,32-80.504V320.087z
	 M360.194,152.087c0.014-4.241,1.698-8.305,4.688-11.312c6.329-6.047,16.295-6.047,22.624,0c2.99,3.007,4.674,7.071,4.688,11.312v88
	h-32L360.194,152.087z M337.162,188.375c4.486,4.51,7.012,10.607,7.032,16.968v50.744c-0.014,4.241-1.698,8.305-4.688,11.312
	c-6.329,6.047-16.295,6.047-22.624,0c-2.99-3.007-4.674-7.072-4.688-11.312v-38.056c0.012-10.588-3-20.96-8.68-29.896
	c9.521-8.838,24.278-8.733,33.672,0.24L337.162,188.375z M227.89,189.759l0.672-0.672c15.261-15.199,39.939-15.199,55.2,0
	l0.68,0.696c7.532,7.469,11.764,17.641,11.752,28.248v38.056c-0.014,4.241-1.698,8.305-4.688,11.312
	c-6.329,6.047-16.295,6.047-22.624,0c-2.99-3.007-4.674-7.072-4.688-11.312v-41.944c0-4.418-3.582-8-8-8c-4.418,0-8,3.582-8,8
	v25.944h-32v-22.056c-0.029-10.612,4.191-20.793,11.72-28.272H227.89z M168.194,128.087c0.014-4.241,1.698-8.305,4.688-11.312
	c6.329-6.047,16.295-6.047,22.624,0c2.99,3.007,4.674,7.071,4.688,11.312v112h-32V128.087z M16.194,280.087
	c0.033-27.813,20.473-51.387,48-55.36v110.72C36.667,331.474,16.227,307.9,16.194,280.087z M119.626,309.863
	c-8.774,13.881-23.181,23.231-39.432,25.592V224.719c16.253,2.363,30.659,11.716,39.432,25.6V309.863z M251.786,304.087
	c-8.535-15.228-27.799-20.653-43.027-12.117c-5.078,2.846-9.271,7.039-12.117,12.117h-60.448v-48h112
	c0.004,17.673,14.334,31.997,32.007,31.993c8.483-0.002,16.618-3.372,22.617-9.369c0.512-0.52,0.896-1.128,1.376-1.672
	c0.472,0.544,0.856,1.152,1.376,1.672c12.499,12.495,32.76,12.492,45.255-0.007c5.997-5.999,9.367-14.134,9.369-22.617h72v48
	H251.786z"/>
<path d="M368.194,64.087h16v16c0,4.418,3.582,8,8,8s8-3.582,8-8v-16h16c4.418,0,8-3.582,8-8s-3.582-8-8-8h-16v-16
	c0-4.418-3.582-8-8-8s-8,3.582-8,8v16h-16c-4.418,0-8,3.582-8,8S363.776,64.087,368.194,64.087z"/>
<path d="M184.194,40.087h16v16c0,4.418,3.582,8,8,8s8-3.582,8-8v-16h16c4.418,0,8-3.582,8-8s-3.582-8-8-8h-16v-16
	c0-4.418-3.582-8-8-8s-8,3.582-8,8v16h-16c-4.418,0-8,3.582-8,8S179.776,40.087,184.194,40.087z"/>
<path d="M72.194,144.087c39.765,0,72-32.235,72-72s-32.235-72-72-72s-72,32.235-72,72C0.238,111.833,32.448,144.043,72.194,144.087z
	 M128.194,72.087c-0.02,5.421-0.829,10.811-2.4,16h-21.6v-32h21.6C127.365,61.276,128.174,66.666,128.194,72.087z M88.194,88.087
	h-32v-32h32V88.087z M40.194,88.087h-21.6c-3.136-10.436-3.136-21.564,0-32h21.6V88.087z M26.322,104.087h13.872v13.888
	C34.793,114.194,30.097,109.493,26.322,104.087z M56.194,125.687v-21.6h32v21.6C77.76,128.834,66.629,128.834,56.194,125.687z
	 M104.194,117.935v-13.848h13.888c-3.782,5.406-8.482,10.106-13.888,13.888V117.935z M118.106,40.087h-13.912V26.199
	C109.608,29.979,114.317,34.679,118.106,40.087z M88.194,18.487v21.6h-32v-21.6C66.629,15.34,77.76,15.34,88.194,18.487z
	 M40.194,26.199v13.888H26.322C30.097,34.681,34.793,29.981,40.194,26.199z"/>
<path d="M134.682,379.383c-2.512-3.635-7.494-4.546-11.129-2.034c-3.635,2.512-4.546,7.494-2.034,11.129
	c0.073,0.106,0.149,0.21,0.227,0.313l64,88c2.512,3.635,7.494,4.546,11.129,2.034c3.635-2.512,4.546-7.494,2.034-11.129
	c-0.073-0.106-0.149-0.21-0.227-0.313L134.682,379.383z"/>
<path d="M125.874,442.431c-3.298-2.94-8.355-2.65-11.295,0.648c-2.71,3.04-2.704,7.631,0.015,10.664l24,24
	c3.178,3.069,8.243,2.982,11.312-0.196c2.994-3.1,2.994-8.015,0-11.116L125.874,442.431z"/>
<path d="M93.874,410.431c-3.298-2.94-8.355-2.65-11.295,0.648c-2.71,3.04-2.704,7.631,0.015,10.664l8,8
	c3.178,3.07,8.242,2.982,11.312-0.196c2.995-3.1,2.995-8.016,0-11.116L93.874,410.431z"/>
<path d="M453.874,418.431c-3.124-3.123-8.188-3.123-11.312,0l-48,48c-3.178,3.07-3.266,8.134-0.196,11.312
	c3.07,3.178,8.134,3.266,11.312,0.196c0.066-0.064,0.132-0.129,0.196-0.196l48-48C456.997,426.619,456.997,421.555,453.874,418.431z
	"/>
<path d="M466.594,394.431l-8,8c-3.178,3.07-3.266,8.134-0.196,11.312c3.07,3.178,8.134,3.266,11.312,0.196
	c0.066-0.064,0.132-0.129,0.196-0.196l8-8c3.07-3.178,2.982-8.242-0.196-11.312C474.61,391.436,469.694,391.436,466.594,394.431z"/>
<path d="M467.778,449.431l-24,16c-3.719,2.386-4.799,7.335-2.413,11.053c2.386,3.719,7.335,4.799,11.053,2.413
	c0.078-0.05,0.156-0.102,0.232-0.155l24-16c3.719-2.386,4.799-7.335,2.413-11.053c-2.386-3.719-7.335-4.799-11.053-2.413
	C467.932,449.327,467.855,449.378,467.778,449.431z"/>
<path d="M90.746,464.495l-24-8c-4.197-1.398-8.734,0.871-10.132,5.068c-1.398,4.197,0.871,8.734,5.068,10.132l0,0l24,8
	c4.197,1.398,8.734-0.871,10.132-5.068C97.213,470.43,94.943,465.893,90.746,464.495L90.746,464.495z"/>
<circle cx="272.194" cy="88.087" r="16"/>
<circle cx="40.194" cy="176.087" r="16"/>
<g>
</g>
<g>
</g>
<g>
</g>
<g>
</g>
<g>
</g>
<g>
</g>
<g>
</g>
<g>
</g>
<g>
</g>
<g>
</g>
<g>
</g>
<g>
</g>
<g>
</g>
<g>
</g>
<g>
</g>
</svg>
